<?xml version="1.0" standalone="no"?>
<!DOCTYPE svg PUBLIC "-//W3C//DTD SVG 20010904//EN"
 "http://www.w3.org/TR/2001/REC-SVG-20010904/DTD/svg10.dtd">
<svg version="1.0" xmlns="http://www.w3.org/2000/svg"
 width="90.000000pt" height="90.000000pt" viewBox="0 0 90.000000 90.000000"
 preserveAspectRatio="xMidYMid meet">
<g transform="translate(0.000000,90.000000) scale(0.100000,-0.100000)"
fill="#000000" stroke="none">
<path class="favorite-svg" d="M185 792 c-119 -57 -161 -202 -97 -337 33 -70 124 -186 208 -266 88
-84 112 -99 154 -99 42 0 66 15 154 99 84 80 175 196 208 266 67 142 13 302
-117 345 -60 20 -156 9 -204 -23 l-41 -27 -42 27 c-55 37 -162 44 -223 15z
m186 -75 c14 -9 35 -28 47 -42 27 -31 37 -31 64 1 80 91 208 87 267 -10 60
-96 -9 -241 -202 -428 -44 -43 -88 -78 -97 -78 -10 0 -55 37 -102 82 -145 142
-218 257 -218 343 0 126 136 200 241 132z"/>
</g>
</svg>
